<?xml version="1.0" encoding="UTF-8" standalone="no"?><!DOCTYPE svg PUBLIC "-//W3C//DTD SVG 1.1//EN" "http://www.w3.org/Graphics/SVG/1.1/DTD/svg11.dtd"><svg width="100%" height="100%" viewBox="0 0 108 108" version="1.1" xmlns="http://www.w3.org/2000/svg" xmlns:xlink="http://www.w3.org/1999/xlink" xml:space="preserve" xmlns:serif="http://www.serif.com/" style="fill-rule:evenodd;clip-rule:evenodd;stroke-linejoin:round;stroke-miterlimit:2;"><g><path d="M36.667,36.667l13,0l0,13l-13,0l0,-13Zm34.666,0l0,13l-13,0l0,-13l13,0Zm-13,23.833l4.334,0l0,-4.333l-4.334,0l0,-4.334l4.334,0l0,4.334l4.333,0l0,-4.334l4.333,0l0,4.334l-4.333,0l0,4.333l4.333,0l0,6.5l-4.333,0l0,4.333l-4.333,0l0,-4.333l-6.5,0l0,4.333l-4.334,0l0,-8.666l6.5,0l0,-2.167Zm4.334,0l0,6.5l4.333,0l0,-6.5l-4.333,0Zm-26,10.833l0,-13l13,0l0,13l-13,0Zm4.333,-30.333l0,4.333l4.333,0l0,-4.333l-4.333,0Zm21.667,0l0,4.333l4.333,0l0,-4.333l-4.333,0Zm-21.667,21.667l0,4.333l4.333,0l0,-4.333l-4.333,0Zm-4.333,-10.834l4.333,0l0,4.334l-4.333,0l0,-4.334Zm10.833,0l8.667,0l0,8.667l-4.334,0l0,-4.333l-4.333,0l0,-4.334Zm4.333,-10.833l4.334,0l0,8.667l-4.334,0l0,-8.667Zm-19.5,-8.667l0,8.667l-4.333,0l0,-8.667c0,-2.383 1.95,-4.333 4.333,-4.333l8.667,0l0,4.333l-8.667,0Zm43.334,-4.333c2.383,0 4.333,1.95 4.333,4.333l0,8.667l-4.333,0l0,-8.667l-8.667,0l0,-4.333l8.667,0Zm-43.334,39l0,8.667l8.667,0l0,4.333l-8.667,0c-2.383,0 -4.333,-1.95 -4.333,-4.333l0,-8.667l4.333,0Zm43.334,8.667l0,-8.667l4.333,0l0,8.667c0,2.383 -1.95,4.333 -4.333,4.333l-8.667,0l0,-4.333l8.667,0Z" style="fill-rule:nonzero;"/></g></svg>