<svg xmlns="http://www.w3.org/2000/svg" width="30" height="30" viewBox="0 0 30 30">
    <g fill="#000000">
        <path d="M25 8.828c-.598 0-1.147.201-1.577.538-.277-1.033-1.258-1.799-2.423-1.799-.598 0-1.147.201-1.578.537-.276-1.032-1.257-1.798-2.422-1.798-.562 0-1.082.178-1.5.479V2.392C15.5 1.073 14.379 0 13 0s-2.5 1.074-2.5 2.392v15.265l-3.916-2.146a4.02 4.02 0 0 0-1.704-.38c-1.313 0-2.38 1.021-2.38 2.285 0 .605.258 1.195.707 1.62l8.622 8.153C13.746 29.002 16.293 30 19 30c4.687 0 8.5-3.618 8.5-8.063V11.22c0-1.319-1.121-2.392-2.5-2.392zm1.5 13.106c0 3.895-3.365 7.065-7.501 7.065-2.45 0-4.752-.901-6.482-2.537l-8.622-8.153a1.223 1.223 0 0 1-.395-.901c0-.704.619-1.277 1.38-1.277.441 0 .884.098 1.25.271l4.63 2.537a.502.502 0 0 0 .74-.439V2.391c0-.768.673-1.392 1.5-1.392s1.5.624 1.5 1.392v12.108a.5.5 0 0 0 1 0V8.694c0-.767.673-1.391 1.5-1.391s1.5.624 1.5 1.391v5.805a.5.5 0 0 0 1 0V9.955c0-.767.673-1.391 1.5-1.391s1.5.624 1.5 1.391v4.544a.5.5 0 0 0 1 0v-3.282c0-.768.673-1.392 1.5-1.392s1.5.624 1.5 1.392v10.717z"></path>
    </g>
</svg>