<svg xmlns="http://www.w3.org/2000/svg" width="32" height="32" viewBox="0 0 32 32">
    <g stroke-linecap="round" stroke-linejoin="round" stroke-width="1" transform="translate(0.5 0.5)" fill="#000000" stroke="#000000">
        <line fill="none" stroke-miterlimit="10" x1="15" y1="7" x2="28" y2="7"></line>
        <polyline fill="none" stroke-miterlimit="10" points=" 19,11 15,7 19,3 "></polyline>
        <line fill="none" stroke="#000000" stroke-miterlimit="10" x1="7" y1="16.99999" x2="7" y2="19.99999"></line>
        <path fill="none" stroke="#000000" stroke-miterlimit="10" d="M19.12761,15.47774 L11,13.99999V7c0-1.10457-0.89543-2-2-2h0C7.89543,5,7,5.89543,7,7v7.39831v2.60168H5c-1.10457,0-2,0.89543-2,2v2.89532 c0,1.36246,0.4637,2.68436,1.31483,3.74826L7,29h13l1.55607-10.11448C21.80318,17.27935,20.72647,15.76844,19.12761,15.47774z"></path>
    </g>
</svg>